<?xml version="1.0" encoding="utf-8"?>
<!-- Generator: Adobe Illustrator 15.0.0, SVG Export Plug-In . SVG Version: 6.00 Build 0)  -->
<!DOCTYPE svg PUBLIC "-//W3C//DTD SVG 1.1//EN" "http://www.w3.org/Graphics/SVG/1.1/DTD/svg11.dtd">
<svg version="1.1" id="Layer_1" xmlns="http://www.w3.org/2000/svg" xmlns:xlink="http://www.w3.org/1999/xlink" x="0px" y="0px"
	 width="50px" height="50px" viewBox="0 0 36.85 47.31" enable-background="new 0 0 36.85 47.31" xml:space="preserve">
<path fill="#FFFFFF" stroke="#FFFFFF" stroke-width="2" stroke-miterlimit="10" d="M4.105,35.397
	c0.322,0.514,0.669,1.02,1.041,1.514c3.154,4.09,7.186,6.93,11.709,8.811c0.465,0.197,1.113,0.359,1.568,0.525
	c0.446-0.162,1.07-0.32,1.531-0.511l0.306-0.103c0.29-0.135,0.557-0.271,0.836-0.407c1.448-0.666,2.839-1.436,4.162-2.319
	c0.052-0.034,0.099-0.07,0.149-0.104c0.367-0.248,0.732-0.498,1.088-0.765c1.944-1.434,3.623-3.075,5.207-5.127
	c0.444-0.59,0.834-1.184,1.197-1.78l0.365-0.622c0.021-0.037,0.037-0.075,0.057-0.111c0.165-0.299,0.318-0.601,0.465-0.904
	c0.072-0.147,0.141-0.297,0.208-0.447c0.119-0.264,0.238-0.529,0.345-0.798c1.026-2.548,1.53-5.299,1.507-8.202
	c0,0-0.013-15.316-0.064-20.705c-0.337-0.098-0.696-0.184-1.046-0.273c-0.58-0.17-1.34-0.344-2.21-0.516
	c-3.563-0.746-7.525-1.216-11.154-1.426l-0.021-0.004c0,0-1.924-0.136-3.582-0.117l0.004-0.006C12.494,0.975,6.009,1.92,1.068,3.341
	C1.016,8.729,1.003,24.046,1.003,24.046c-0.031,3.783,0.825,7.309,2.579,10.463C3.582,34.509,3.846,34.993,4.105,35.397z"/>
<g>
	<path d="M29.951,24.188l-0.438-0.143l-0.096-0.459l-0.754-0.293c-2.051-0.713-4.154-1.289-6.326-1.496
		c-1.398-0.133-2.814-0.029-3.889,0.664c-1.072-0.693-2.486-0.797-3.886-0.664c-2.173,0.207-4.278,0.783-6.333,1.496l-0.754,0.293
		l-0.098,0.459l-0.439,0.143L4.482,34.452c1.386-0.256,4.24-0.67,5.822-0.834c1.967-0.221,3.644-0.303,5.865-0.229
		c-0.01,0.09-0.035,0.162,0.02,0.252c0.258,0.246,0.775,0.223,1.19,0.26c0.431,0.018,0.622,0.023,1.046,0.027
		s0.615-0.01,1.045-0.027c0.415-0.037,0.935-0.014,1.193-0.26c0.055-0.09,0.029-0.162,0.02-0.252
		c2.223-0.074,3.898,0.008,5.865,0.229c1.58,0.164,4.433,0.578,5.818,0.834L29.951,24.188z M18.151,31.913
		c-1.144-0.613-2.571-0.703-3.962-0.625c-2.969,0.189-5.64,0.844-8.436,1.795l2.14-9.281c2.147-0.818,4.403-1.467,6.737-1.664
		c1.528-0.094,2.844,0.1,3.6,0.643L18.151,31.913z M22.672,31.288c-1.389-0.078-2.817,0.012-3.964,0.625l-0.042-9.133
		c0.759-0.543,2.075-0.736,3.604-0.643c2.333,0.197,4.586,0.846,6.73,1.664l2.101,9.281C28.309,32.132,25.642,31.478,22.672,31.288z
		"/>
	<path d="M19.09,1.023l2.438,4.901l0.007,0.017c0.01,0.021,0.042,0.087,0.129,0.239c0.082-0.031,0.16-0.063,0.24-0.096
		c0.109-0.062,4.084-2.323,4.084-2.323s-1.762,8.651-1.934,9.493c0.781-0.82,3.943-4.148,3.943-4.148s1.344,2.559,1.659,3.156
		c0.054-0.009,0.433-0.072,0.433-0.072l-0.215,0.035l4.846-1.332l-1.541,5.439c0,0-0.021,0.035-0.029,0.047h0.004
		c0,0-0.018,0.055-0.02,0.064c0.002-0.002,0.015-0.021,0.015-0.021s-0.128,0.383-0.185,0.555c-0.022,0.07-0.076,0.242-0.091,0.287
		c0.294,0.152,2.481,1.279,2.481,1.279s-2.83,2.51-5.156,4.57c0.023,0.109,0.05,0.238,0.057,0.266
		c0.061,0.021,0.424,0.141,0.424,0.141l2.586,10.988c1.756-3.152,2.611-6.68,2.581-10.463c0,0-0.013-15.316-0.064-20.705
		C30.845,1.921,24.367,1.179,19.09,1.023"/>
	<path d="M18.424,46.247c0.457-0.166,1.105-0.328,1.568-0.525c4.525-1.881,8.557-4.721,11.711-8.811
		c0.371-0.494,0.717-1,1.039-1.514L32.211,35.3c-1.426-0.262-4.273-0.67-5.758-0.826c-0.163-0.018-0.322-0.033-0.479-0.051
		c-0.033-0.002-0.065-0.006-0.098-0.008c-0.159-0.018-0.316-0.033-0.471-0.047c-0.003,0-0.004,0-0.006,0
		c-0.16-0.014-0.318-0.027-0.475-0.039c-0.013,0-0.025-0.002-0.038-0.002c-0.161-0.014-0.319-0.023-0.478-0.033l0,0
		c-1.03-0.064-2.019-0.082-3.121-0.059c-0.014,0.014-0.029,0.031-0.029,0.031c-0.439,0.418-1.049,0.453-1.496,0.479l-0.247,0.018
		l-0.253,0.012l-0.845,0.018l-1.073-0.027l-0.259-0.02c-0.445-0.025-1.056-0.061-1.495-0.48c0,0-0.016-0.016-0.027-0.029
		c-0.936-0.02-1.791-0.01-2.658,0.031c-0.199,0.012-0.398,0.023-0.601,0.035c-0.003,0-0.007,0.002-0.011,0.002
		C12.197,34.31,12.1,34.315,12,34.323c-0.006,0-0.013,0.002-0.02,0.002c-0.096,0.008-0.19,0.016-0.288,0.023
		c-0.015,0-0.03,0.002-0.046,0.004c-0.088,0.008-0.176,0.014-0.267,0.021c-0.028,0.004-0.058,0.006-0.086,0.01
		c-0.077,0.008-0.155,0.014-0.233,0.021c-0.051,0.004-0.102,0.01-0.152,0.016c-0.059,0.006-0.117,0.012-0.176,0.018
		c-0.111,0.012-0.225,0.025-0.339,0.035C8.912,34.63,6.062,35.038,4.639,35.3l-0.533,0.098c0.322,0.514,0.669,1.02,1.041,1.514
		c3.154,4.09,7.186,6.93,11.709,8.811C17.32,45.919,17.969,46.081,18.424,46.247"/>
	<path d="M17.773,0.999C12.494,0.975,6.009,1.92,1.068,3.341C1.016,8.729,1.003,24.046,1.003,24.046
		c-0.031,3.783,0.825,7.309,2.579,10.463l2.631-10.99c0,0,0.369-0.119,0.426-0.139c0.006-0.023,0.029-0.131,0.049-0.23
		c-2.331-2.068-5.192-4.605-5.192-4.605s2.187-1.127,2.48-1.279c-0.015-0.045-0.073-0.23-0.103-0.324
		c-0.051-0.154-0.105-0.32-0.141-0.422c0-0.002-0.014-0.02-0.014-0.02l-1.59-5.605l4.848,1.332l-0.211-0.034
		c0.042,0.007,0.376,0.062,0.428,0.071c0.314-0.598,1.66-3.156,1.66-3.156s3.158,3.325,3.941,4.148
		c-0.173-0.846-1.934-9.492-1.934-9.492s3.977,2.26,4.086,2.322c0.078,0.032,0.156,0.064,0.238,0.096
		c0.09-0.159,0.121-0.221,0.128-0.236l0.008-0.018l2.167-4.356L17.773,0.999"/>
	<path fill="#AA1F23" d="M5.059,17.437c-0.018,0.258-0.26,0.549-0.397,0.652L3.33,18.774l4.312,3.822l0.289-0.111l0.016-0.006
		c2.482-0.863,4.559-1.352,6.535-1.539c1.624-0.156,2.928,0.021,3.967,0.535c1.042-0.514,2.347-0.691,3.971-0.535
		c1.975,0.188,4.049,0.676,6.527,1.539l0.016,0.006l0.258,0.1l4.299-3.811l-1.33-0.686c-0.139-0.104-0.381-0.395-0.398-0.652
		c-0.004-0.076-0.014-0.068-0.021-0.047c0.001-0.006,0.003-0.012,0.003-0.021c0.025-0.152,0-0.119,0.139-0.531
		c-0.01,0.01,0.254-0.783,0.261-0.789l1.036-3.653l-3.057,0.841c-0.168,0.01-0.321,0.068-0.486,0.092
		c-0.287,0.041-0.518,0.08-0.688-0.109l-1.226-2.332l-3.489,3.67l-0.276,0.275c-0.588,0.445-1.417-0.035-1.055-1.305l1.572-7.717
		l-2.141,1.217c-0.289,0.12-0.537,0.219-0.934,0.344c-0.131,0.041-0.262-0.044-0.35-0.127c-0.152-0.249-0.409-0.674-0.498-0.869
		l-2.156-4.338l-2.16,4.338c-0.086,0.195-0.344,0.62-0.496,0.869c-0.088,0.083-0.219,0.168-0.35,0.127
		c-0.396-0.125-0.645-0.224-0.933-0.344L12.346,5.81l1.572,7.717c0.361,1.27-0.467,1.75-1.055,1.305l-0.275-0.275L9.1,10.886
		l-1.227,2.332c-0.172,0.189-0.403,0.15-0.688,0.109c-0.165-0.023-0.318-0.082-0.485-0.092l-3.057-0.841l1.035,3.653
		c0.007,0.006,0.271,0.799,0.26,0.789c0.138,0.412,0.113,0.379,0.138,0.531c0.001,0.008,0.002,0.012,0.003,0.018
		C5.071,17.366,5.062,17.364,5.059,17.437z M21.047,7.21C20.959,7.118,20.936,7.051,21.047,7.21L21.047,7.21z M15.804,7.21
		C15.914,7.052,15.891,7.118,15.804,7.21L15.804,7.21z"/>
	<path d="M16.977,25.048c-1.221-0.518-2.637-0.357-3.926-0.135c-1.523,0.264-2.23,0.455-3.908,1.018l0.095-0.418
		c0,0,2.112-0.822,4.965-1.156c0,0,1.64-0.207,2.774,0.295V25.048L16.977,25.048z"/>
	<path d="M16.977,26.894c-1.221-0.516-2.637-0.357-3.926-0.135c-1.523,0.266-2.615,0.434-4.342,1.008l0.094-0.418
		c0,0,2.547-0.812,5.399-1.145c0,0,1.64-0.209,2.774,0.295V26.894L16.977,26.894z"/>
	<path d="M16.977,28.767c-1.221-0.518-2.637-0.359-3.926-0.137c-1.523,0.264-3.07,0.672-4.819,1.258l0.094-0.418
		c0,0,3.024-1.062,5.877-1.396c0,0,1.64-0.207,2.774,0.295V28.767L16.977,28.767z"/>
	<path d="M19.83,25.048c1.221-0.518,2.637-0.357,3.926-0.135c1.522,0.264,2.23,0.455,3.907,1.018l-0.095-0.418
		c0,0-2.111-0.822-4.965-1.156c0,0-1.639-0.207-2.773,0.295V25.048L19.83,25.048z"/>
	<path d="M19.83,26.894c1.221-0.516,2.637-0.357,3.926-0.135c1.522,0.266,2.613,0.434,4.342,1.008l-0.096-0.418
		c0,0-2.545-0.812-5.398-1.145c0,0-1.639-0.209-2.773,0.295V26.894L19.83,26.894z"/>
	<path d="M19.83,28.767c1.221-0.518,2.637-0.359,3.926-0.137c1.522,0.264,3.07,0.672,4.818,1.258L28.48,29.47
		c0,0-3.023-1.062-5.877-1.396c0,0-1.639-0.207-2.773,0.295V28.767L19.83,28.767z"/>
</g>
</svg>
